<?xml version="1.0" encoding="UTF-8"?>
<svg id="Layer_1" xmlns="http://www.w3.org/2000/svg" version="1.1" viewBox="0 0 249.7 249.7">
  <!-- Generator: Adobe Illustrator 29.0.0, SVG Export Plug-In . SVG Version: 2.1.0 Build 186)  -->
  <defs>
    <style>
      .st0 {
        stroke-width: 5px;
      }

      .st0, .st1 {
        fill: none;
        stroke: #fff;
        stroke-miterlimit: 10;
      }

      .st1 {
        stroke-width: 3px;
      }
    </style>
  </defs>
  <path class="st0" d="M102.1,99.9c0-22.6,18.7-41,41.7-41"/>
  <ellipse class="st1" cx="102.1" cy="99.9" rx="100.6" ry="98.4"/>
  <ellipse class="st1" cx="102.1" cy="99.9" rx="90.5" ry="88.5"/>
  <path class="st1" d="M176.2,164.9c34.2,33.4,70.3,68.4,70.3,68.4,0,0,8.9,20.3-13.7,13.4l-70.8-69.2"/>
  <g>
    <ellipse class="st0" cx="144.2" cy="95.5" rx="13.2" ry="12.9"/>
    <path class="st0" d="M168.1,126.5c-6.2,5.8-14.6,9.3-23.8,9.3s-17.5-3.5-23.8-9.3c3-10.3,12.5-17.9,23.8-17.9s20.8,7.5,23.8,17.9Z"/>
    <path class="st0" d="M179.2,100.9c0,10.1-4.3,19.2-11.2,25.6-6.2,5.8-14.6,9.3-23.8,9.3s-17.5-3.5-23.8-9.3c-6.9-6.4-11.2-15.5-11.2-25.6,0-19.3,15.6-35,35-35s34.9,15.7,34.9,35Z"/>
  </g>
  <g>
    <ellipse class="st0" cx="59.8" cy="95.5" rx="13.2" ry="12.9"/>
    <path class="st0" d="M83.6,126.5c-6.2,5.8-14.6,9.3-23.8,9.3s-17.5-3.5-23.8-9.3c3-10.3,12.5-17.9,23.8-17.9s20.8,7.5,23.8,17.9Z"/>
    <path class="st0" d="M94.8,100.9c0,10.1-4.3,19.2-11.2,25.6-6.2,5.8-14.6,9.3-23.8,9.3s-17.5-3.5-23.8-9.3c-6.9-6.4-11.2-15.5-11.2-25.6,0-19.3,15.6-35,35-35s34.9,15.7,34.9,35Z"/>
  </g>
  <path class="st0" d="M101.8,101c0-23.2,18.9-42,42.2-42"/>
  <path class="st0" d="M59.6,143c11.7,0,22.3-4.8,29.9-12.5,7.6-7.6,12.3-18,12.3-29.7"/>
</svg>